# xmcd
#
# Track frame offsets: 
#        150
#        11237
#        21622
#        34475
#        45717
#        55602
#        67002
#        82012
#        93582
#        103475
#        118592
#        131382
#        145715
#        157967
#        170170
#        180787
#        192922
#        207750
#        220162
#        233632
#
# Disc length: 3290 seconds
#
# Revision: 3
# Processed by: cddbd v1.5.1PL0 Copyright (c) Steve Scherf et al.
# Submitted via: ExactAudioCopy v0.95a5
#
DISCID=1f0cd814
DTITLE=Merle Haggard - The Lonesome Fugitive: The Merle Haggard Anthol
DTITLE=ogy (1963-1977) [Disc 2]
DYEAR=1995
DGENRE=Country
TTITLE0=Street Singer
TTITLE1=Jesus, Take A Hold
TTITLE2=I Can't Be Myself
TTITLE3=Sidewalks Of Chicago
TTITLE4=Soldier's Last Letter
TTITLE5=Someday We'll Look Back
TTITLE6=Daddy Frank (The Guitar Man)
TTITLE7=Carolyn
TTITLE8=Grandma Harp
TTITLE9=It's Not Love (But It's Not Bad)
TTITLE10=I Wonder If They Ever Think Of Me
TTITLE11=Everybody's Had The Blues
TTITLE12=If We Make It Through December
TTITLE13=Things Aren't Funny Anymore
TTITLE14=Old Man From The Mountain
TTITLE15=Kentucky Gambler
TTITLE16=It's All In The Movies
TTITLE17=The Roots Of My Raising
TTITLE18=Cherokee Maiden
TTITLE19=A Working Man Can't Get Nowhere Today
EXTD=YEAR: 1995 ID3G: 2
EXTT0=
EXTT1=
EXTT2=
EXTT3=
EXTT4=
EXTT5=
EXTT6=
EXTT7=
EXTT8=
EXTT9=
EXTT10=
EXTT11=
EXTT12=
EXTT13=
EXTT14=
EXTT15=
EXTT16=
EXTT17=
EXTT18=
EXTT19=
PLAYORDER=
